<svg width="674" height="612" viewBox="0 0 674 612" fill="none" xmlns="http://www.w3.org/2000/svg">
<path d="M516 216.5C516 402.702 348.088 554 140.5 554C-67.0878 554 -235 402.702 -235 216.5C-235 30.2982 -67.0878 -121 140.5 -121C348.088 -121 516 30.2982 516 216.5Z" fill="#6B7DBD" stroke="#F2EDF4" stroke-width="4"/>
<path d="M672 49.5C672 134.834 603.046 204 518 204C432.954 204 364 134.834 364 49.5C364 -35.834 432.954 -105 518 -105C603.046 -105 672 -35.834 672 49.5Z" fill="#C2C8E8" stroke="#F2EDF4" stroke-width="4"/>
<path d="M107 540C107 578.673 75.8707 610 37.5 610C-0.870674 610 -32 578.673 -32 540C-32 501.327 -0.870674 470 37.5 470C75.8707 470 107 501.327 107 540Z" fill="#C2C8E8" stroke="#F2EDF4" stroke-width="4"/>
<path d="M168 556C168 577.635 151.341 595 131 595C110.659 595 94 577.635 94 556C94 534.365 110.659 517 131 517C151.341 517 168 534.365 168 556Z" fill="#A4B5CF" stroke="#F2EDF4" stroke-width="4"/>
</svg>
