<svg width="223" height="194" viewBox="0 0 223 194" fill="none" xmlns="http://www.w3.org/2000/svg">
<path d="M161 42.5C161 57.7534 149.071 70 134.5 70C119.929 70 108 57.7534 108 42.5C108 27.2466 119.929 15 134.5 15C149.071 15 161 27.2466 161 42.5Z" fill="#6B7DBD" stroke="#F2EDF4" stroke-width="4"/>
<path d="M357 223C357 312.419 282.507 385 190.5 385C98.4932 385 24 312.419 24 223C24 133.581 98.4932 61 190.5 61C282.507 61 357 133.581 357 223Z" fill="#6B7DBD" stroke="#F2EDF4" stroke-width="4"/>
<path d="M245 59C245 90.5799 220.726 116 191 116C161.274 116 137 90.5799 137 59C137 27.4201 161.274 2 191 2C220.726 2 245 27.4201 245 59Z" fill="#A4B5CF" stroke="#F2EDF4" stroke-width="4"/>
<path d="M64 190.5C64 207.316 50.1497 221 33 221C15.8503 221 2 207.316 2 190.5C2 173.684 15.8503 160 33 160C50.1497 160 64 173.684 64 190.5Z" fill="#C2C8E8" stroke="#F2EDF4" stroke-width="4"/>
</svg>
